{"title":"O Vingador do Futuro 1080p 2012 Dual audio Bluray","uid":9039398,"size":10014794960,"categoryP":"video","categoryS":"hd___movies","magnet":"?xt=urn:btih:eef26e317afb1a05ba749dd532b0b900c1a645aa&amp;dn=O+Vingador+do+Futuro+1080p+2012+Dual+audio+Bluray&amp;tr=udp%3A%2F%2Ftracker.openbittorrent.com%3A80&amp;tr=udp%3A%2F%2Fopen.demonii.com%3A1337&amp;tr=udp%3A%2F%2Ftracker.coppersurfer.tk%3A6969&amp;tr=udp%3A%2F%2Fexodus.desync.com%3A6969","seeders":0,"leechers":0,"uploader":"ADNrib","files":2,"time":1381583820,"description":"O Vingador do Futuro 1080p 2012 Dual audio Bluray\n\n\n\n\nGeneral\n\nUnique ID                      : O Vingador do Futuro 1080p 2012 Dual audio Bluray\nFormat                         : Matroska\nFormat version                 : Version 2\nFile size                      : 9.33 GiB\nDuration                       : 2h 10mn\nOverall bit rate               : 10.2 Mbps\nEncoded date                   : UTC 2012-11-27 10:21:37\nWriting application            : mkvmerge v5.0.1 ('Es ist Sommer') built on Oct 13 2011 12:47:36\nWriting library                : libebml v1.2.2 + libmatroska v1.3.0\n\nVideo\nID                             : 1\nFormat                         : AVC\nFormat/Info                    : Advanced Video Codec\nFormat profile                 : &lt;a class=&quot;__cf_email__&quot; href=&quot;/cdn-cgi/l/email-protection&quot; data-cfemail=&quot;8cc4e5ebe4ccc0b8a2bd&quot;&gt;[email&amp;#160;protected]&lt;/a&gt;&lt;script cf-hash='f9e31' type=&quot;text/javascript&quot;&gt;\n/* &lt;![CDATA[ */!function(){try{var t=&quot;currentScript&quot;in document?document.currentScript:function(){for(var t=document.getElementsByTagName(&quot;script&quot;),e=t.length;e--;)if(t[e].getAttribute(&quot;cf-hash&quot;))return t[e]}();if(t&amp;&amp;t.previousSibling){var e,r,n,i,c=t.previousSibling,a=c.getAttribute(&quot;data-cfemail&quot;);if(a){for(e=&quot;&quot;,r=parseInt(a.substr(0,2),16),n=2;a.length-n;n+=2)i=parseInt(a.substr(n,2),16)^r,e+=String.fromCharCode(i);e=document.createTextNode(e),c.parentNode.replaceChild(e,c)}}}catch(u){}}();/* ]]&gt; */&lt;/script&gt;\nFormat settings, CABAC         : Yes\nFormat settings, ReFrames      : 5 frames\nCodec ID                       : V_MPEG4/ISO/AVC\nDuration                       : 2h 10mn\nBit rate                       : 8 970 Kbps\nWidth                          : 1 920 pixels\nHeight                         : 800 pixels\nDisplay aspect ratio           : 2.40:1\nFrame rate mode                : Constant\nFrame rate                     : 23.976 fps\nColor space                    : YUV\nChroma subsampling             : 4:2:0\nBit depth                      : 8 bits\nScan type                      : Progressive\nBits/(Pixel*Frame)             : 0.244\nStream size                    : 7.98 GiB (86%)\nWriting library                : x264 core 128 r2216kMod 198a7ea\nEncoding                        : Yes\nForced                         : No\n\nAudio #1\nID                             : 2\nFormat                         : AC-3\nFormat/Info                    : Audio Coding 3\nMode extension                 : CM (complete main)\nFormat settings, Endianness    : Big\nCodec ID                       : A_AC3\nDuration                       : 2h 10mn\nBit rate mode                  : Constant\nBit rate                       : 640 Kbps\nChannel count                  : 6 channels\nChannel positions              : Front: L C R, Side: L R, LFE\nSampling rate                  : 48.0 KHz\nBit depth                      : 16 bits\nCompression mode               : Lossy\nStream size                    : 596 MiB (6%)\nTitle                          : BKZ\nLanguage                       : Portuguese\nDefault                        : Yes\nForced                         : Yes\n\nAudio #2\nID                             : 3\nFormat                         : AC-3\nFormat/Info                    : Audio Coding 3\nMode extension                 : CM (complete main)\nFormat settings, Endianness    : Big\nCodec ID                       : A_AC3\nDuration                       : 2h 10mn\nBit rate mode                  : Constant\nBit rate                       : 640 Kbps\nChannel count                  : 6 channels\nChannel positions              : Front: L C R, Side: L R, LFE\nSampling rate                  : 48.0 KHz\nBit depth                      : 16 bits\nCompression mode               : Lossy\nStream size                    : 596 MiB (6%)\nLanguage                       : English\nDefault                        : No\nForced                         : No\n\n","torrent":{"xt":"urn:btih:eef26e317afb1a05ba749dd532b0b900c1a645aa","amp;dn":"O+Vingador+do+Futuro+1080p+2012+Dual+audio+Bluray","amp;tr":["udp%3A%2F%2Ftracker.openbittorrent.com%3A80","udp%3A%2F%2Fopen.demonii.com%3A1337","udp%3A%2F%2Ftracker.coppersurfer.tk%3A6969","udp%3A%2F%2Fexodus.desync.com%3A6969"],"infoHash":"eef26e317afb1a05ba749dd532b0b900c1a645aa","infoHashBuffer":{"type":"Buffer","data":[238,242,110,49,122,251,26,5,186,116,157,213,50,176,185,0,193,166,69,170]},"announce":[],"urlList":[]}}